<svg width="30" height="30" viewBox="0 0 30 30" fill="none" xmlns="http://www.w3.org/2000/svg">
<g clip-path="url(#clip0_234_12)">
<path d="M26.248 6.07898V28.5214C26.248 29.337 25.5849 30.0001 24.7693 30.0001H5.2316C4.41604 30.0001 3.75293 29.337 3.75293 28.5214V1.47867C3.75293 0.663105 4.41604 0 5.2316 0H20.1691C20.363 0 20.5379 0.0779883 20.665 0.205137H20.6657L26.0429 5.58234C26.175 5.71512 26.2453 5.89143 26.2467 6.07195C26.2473 6.07406 26.248 6.07617 26.248 6.07898ZM24.8431 28.5213V6.78141H20.9452C20.1297 6.78141 19.4665 6.1183 19.4665 5.30273V1.4049H5.2316C5.19088 1.4049 5.15783 1.43789 5.15783 1.47867V28.5214C5.15783 28.5621 5.19082 28.5952 5.2316 28.5952H24.7694C24.8101 28.5951 24.8431 28.5621 24.8431 28.5213ZM20.9453 5.3765H23.8499L20.8715 2.39813V5.30273C20.8715 5.34352 20.9045 5.3765 20.9453 5.3765Z" fill="#1E0478"/>
<path d="M21.2163 9.61014C21.6048 9.61014 21.9187 9.92485 21.9187 10.3126C21.9187 10.7003 21.6047 11.015 21.2163 11.015H8.78445C8.39598 11.015 8.08203 10.7003 8.08203 10.3126C8.08203 9.92485 8.39603 9.61014 8.78445 9.61014H21.2163Z" fill="#1E0478"/>
<path d="M21.2163 13.8487C21.6048 13.8487 21.9187 14.1634 21.9187 14.5511C21.9187 14.9388 21.6047 15.2535 21.2163 15.2535H8.78445C8.39598 15.2535 8.08203 14.9388 8.08203 14.5511C8.08203 14.1634 8.39603 13.8487 8.78445 13.8487H21.2163Z" fill="#1E0478"/>
<path d="M21.2163 18.0872C21.6048 18.0872 21.9187 18.402 21.9187 18.7897C21.9187 19.1781 21.6047 19.4921 21.2163 19.4921H8.78445C8.39598 19.4921 8.08203 19.1781 8.08203 18.7897C8.08203 18.4019 8.39603 18.0872 8.78445 18.0872H21.2163Z" fill="#1E0478"/>
<path d="M15.0004 22.3265C15.3881 22.3265 15.7028 22.6405 15.7028 23.0289C15.7028 23.4167 15.3881 23.7314 15.0004 23.7314H8.78445C8.39598 23.7314 8.08203 23.4166 8.08203 23.0289C8.08203 22.6405 8.39603 22.3265 8.78445 22.3265H15.0004Z" fill="#1E0478"/>
</g>
<defs>
<clipPath id="clip0_234_12">
<rect width="30" height="30" fill="white"/>
</clipPath>
</defs>
</svg>
