<svg width="0" height="0" class="hidden">
  <symbol fill="none" xmlns="http://www.w3.org/2000/svg" viewBox="0 0 30 30" id="icon-document">
    <g clip-path="url(#clip0_234_12)">
      <path d="M26.248 6.07898V28.5214C26.248 29.337 25.5849 30.0001 24.7693 30.0001H5.2316C4.41604 30.0001 3.75293 29.337 3.75293 28.5214V1.47867C3.75293 0.663105 4.41604 0 5.2316 0H20.1691C20.363 0 20.5379 0.0779883 20.665 0.205137H20.6657L26.0429 5.58234C26.175 5.71512 26.2453 5.89143 26.2467 6.07195C26.2473 6.07406 26.248 6.07617 26.248 6.07898ZM24.8431 28.5213V6.78141H20.9452C20.1297 6.78141 19.4665 6.1183 19.4665 5.30273V1.4049H5.2316C5.19088 1.4049 5.15783 1.43789 5.15783 1.47867V28.5214C5.15783 28.5621 5.19082 28.5952 5.2316 28.5952H24.7694C24.8101 28.5951 24.8431 28.5621 24.8431 28.5213ZM20.9453 5.3765H23.8499L20.8715 2.39813V5.30273C20.8715 5.34352 20.9045 5.3765 20.9453 5.3765Z" fill="#1E0478"></path>
      <path d="M21.2163 9.61014C21.6048 9.61014 21.9187 9.92485 21.9187 10.3126C21.9187 10.7003 21.6047 11.015 21.2163 11.015H8.78445C8.39598 11.015 8.08203 10.7003 8.08203 10.3126C8.08203 9.92485 8.39603 9.61014 8.78445 9.61014H21.2163Z" fill="#1E0478"></path>
      <path d="M21.2163 13.8487C21.6048 13.8487 21.9187 14.1634 21.9187 14.5511C21.9187 14.9388 21.6047 15.2535 21.2163 15.2535H8.78445C8.39598 15.2535 8.08203 14.9388 8.08203 14.5511C8.08203 14.1634 8.39603 13.8487 8.78445 13.8487H21.2163Z" fill="#1E0478"></path>
      <path d="M21.2163 18.0872C21.6048 18.0872 21.9187 18.402 21.9187 18.7897C21.9187 19.1781 21.6047 19.4921 21.2163 19.4921H8.78445C8.39598 19.4921 8.08203 19.1781 8.08203 18.7897C8.08203 18.4019 8.39603 18.0872 8.78445 18.0872H21.2163Z" fill="#1E0478"></path>
      <path d="M15.0004 22.3265C15.3881 22.3265 15.7028 22.6405 15.7028 23.0289C15.7028 23.4167 15.3881 23.7314 15.0004 23.7314H8.78445C8.39598 23.7314 8.08203 23.4166 8.08203 23.0289C8.08203 22.6405 8.39603 22.3265 8.78445 22.3265H15.0004Z" fill="#1E0478"></path>
    </g>
    <defs>
      <clipPath id="clip0_234_12">
        <rect width="30" height="30" fill="white"></rect>
      </clipPath>
    </defs>
  </symbol>

          <symbol
    fill="none"
    xmlns="http://www.w3.org/2000/svg"
    viewBox="0 0 9 9"
    id="icon-star"
  ><g clip-path="url(#clip0_27_2076)"><path
        d="M8.99207 3.4761C8.97306 3.41779 8.92264 3.37526 8.8619 3.3664L5.94766 2.94287L4.64439 0.302172C4.61732 0.247077 4.56126 0.21228 4.50005 0.21228C4.43883 0.21228 4.38261 0.247077 4.3557 0.302172L3.05227 2.94303L0.138025 3.36656C0.0772913 3.37542 0.0270291 3.41779 0.00785854 3.47626C-0.0109898 3.53442 0.0046366 3.59854 0.0486161 3.64123L2.15754 5.69682L1.65958 8.59947C1.64927 8.65988 1.67408 8.72093 1.72354 8.75702C1.77332 8.79343 1.83921 8.7981 1.89318 8.76926L4.50005 7.39897L7.10659 8.76926C7.13011 8.78167 7.15605 8.78779 7.18166 8.78779C7.21501 8.78779 7.2482 8.77748 7.27639 8.75702C7.32601 8.72093 7.35082 8.65988 7.34034 8.59947L6.84256 5.69698L8.95148 3.64123C8.99529 3.59821 9.01108 3.53426 8.99207 3.4761Z"
        fill="#FFBF1B"
      /></g><defs><clipPath id="clip0_27_2076"><rect
          width="9"
          height="9"
          fill="white"
        /></clipPath></defs></symbol>

        <symbol
    version="1.1"
    id="icon-instagram"
    xmlns="http://www.w3.org/2000/svg"
    xmlns:xlink="http://www.w3.org/1999/xlink"
    x="0px"
    y="0px"
    xml:space="preserve"
    viewBox="0 0 169.063 169.063"
  ><g><path
        d="M122.406,0H46.654C20.929,0,0,20.93,0,46.655v75.752c0,25.726,20.929,46.655,46.654,46.655h75.752
		c25.727,0,46.656-20.93,46.656-46.655V46.655C169.063,20.93,148.133,0,122.406,0z M154.063,122.407
		c0,17.455-14.201,31.655-31.656,31.655H46.654C29.2,154.063,15,139.862,15,122.407V46.655C15,29.201,29.2,15,46.654,15h75.752
		c17.455,0,31.656,14.201,31.656,31.655V122.407z"
      /><path
        d="M84.531,40.97c-24.021,0-43.563,19.542-43.563,43.563c0,24.02,19.542,43.561,43.563,43.561s43.563-19.541,43.563-43.561
		C128.094,60.512,108.552,40.97,84.531,40.97z M84.531,113.093c-15.749,0-28.563-12.812-28.563-28.561
		c0-15.75,12.813-28.563,28.563-28.563s28.563,12.813,28.563,28.563C113.094,100.281,100.28,113.093,84.531,113.093z"
      /><path
        d="M129.921,28.251c-2.89,0-5.729,1.17-7.77,3.22c-2.051,2.04-3.23,4.88-3.23,7.78c0,2.891,1.18,5.73,3.23,7.78
		c2.04,2.04,4.88,3.22,7.77,3.22c2.9,0,5.73-1.18,7.78-3.22c2.05-2.05,3.22-4.89,3.22-7.78c0-2.9-1.17-5.74-3.22-7.78
		C135.661,29.421,132.821,28.251,129.921,28.251z"
      /></g><g /><g /><g /><g /><g /><g /><g /><g /><g /><g /><g /><g /><g /><g
    /><g /></symbol>

        
        <symbol
    xmlns="http://www.w3.org/2000/svg"
    viewBox="0 0 22 16"
    id="icon-meta"
  ><g clip-path="url(#clip0_27_2067)"><path
        d="M2.27252 10.3919C2.27252 11.2542 2.45905 11.9161 2.70302 12.3166C3.02281 12.8413 3.49975 13.0639 3.98602 13.0639C4.61311 13.0639 5.18686 12.9061 6.29248 11.355C7.17846 10.1119 8.22197 8.36691 8.92423 7.27295L10.1135 5.41958C10.9396 4.13246 11.8958 2.70164 12.9922 1.73178C13.8875 0.940129 14.8528 0.500366 15.8245 0.500366C17.4559 0.500366 19.0098 1.45926 20.1991 3.25766C21.5007 5.22718 22.1324 7.70807 22.1324 10.2681C22.1324 11.7901 21.8367 12.9084 21.3334 13.7919C20.8472 14.6463 19.8995 15.5 18.3052 15.5V13.0636C19.6703 13.0636 20.0109 11.7913 20.0109 10.3353C20.0109 8.2605 19.534 5.95801 18.4833 4.31275C17.7377 3.14576 16.7715 2.43271 15.7084 2.43271C14.5585 2.43271 13.6333 3.31243 12.5934 4.8805C12.0406 5.71377 11.4731 6.72913 10.8358 7.87494L10.1343 9.13539C8.7253 11.67 8.3683 12.247 7.6637 13.1994C6.42883 14.8673 5.37422 15.4996 3.98602 15.4996C2.33911 15.4996 1.29775 14.7763 0.652753 13.6863C0.126291 12.7981 -0.132324 11.6326 -0.132324 10.3047L2.27252 10.3919Z"
      /><path
        d="M1.76367 3.42926C2.86621 1.70549 4.45735 0.5 6.2823 0.5C7.33914 0.5 8.39001 0.817265 9.48696 1.72593C10.687 2.71915 11.9661 4.35561 13.5619 7.05151L14.1341 8.01873C15.5154 10.3527 16.3012 11.5535 16.7612 12.1197C17.3527 12.8469 17.7669 13.0637 18.305 13.0637C19.6701 13.0637 20.0107 11.7914 20.0107 10.3354L22.1322 10.2679C22.1322 11.7899 21.8365 12.9081 21.3332 13.7916C20.847 14.646 19.8993 15.4997 18.305 15.4997C17.3139 15.4997 16.436 15.2814 15.465 14.3523C14.7189 13.6393 13.846 12.3726 13.1747 11.2339L11.1779 7.85073C10.1761 6.15288 9.25669 4.88694 8.7251 4.31361C8.15285 3.69706 7.41729 2.95261 6.2435 2.95261C5.29354 2.95261 4.48673 3.62876 3.81161 4.66304L1.76367 3.42926Z"
      /><path
        d="M6.2437 2.95261C5.29374 2.95261 4.48693 3.62876 3.81181 4.66304C2.85709 6.1245 2.27299 8.30137 2.27299 10.3919C2.27299 11.2542 2.45951 11.9162 2.70349 12.3167L0.652753 13.6863C0.126291 12.7981 -0.132324 11.6327 -0.132324 10.3048C-0.132324 7.88989 0.521161 5.37296 1.76387 3.42926C2.86641 1.70549 4.45755 0.5 6.2825 0.5L6.2437 2.95261Z"
      /></g><defs><clipPath id="clip0_27_2067"><rect
          width="22"
          height="15"
          fill="white"
          transform="translate(0 0.5)"
        /></clipPath></defs></symbol>
        
<symbol
    xmlns="http://www.w3.org/2000/svg"
    viewBox="0 0 18 19"
    id="icon-share"
  ><path
      d="M14.5146 11.8643C13.2845 11.8643 12.2011 12.5201 11.5807 13.508L6.69855 10.8821C6.87378 10.4568 6.97074 9.98979 6.97074 9.50004C6.97074 9.01029 6.87378 8.54326 6.69855 8.11798L11.5807 5.4921C12.2012 6.48002 13.2845 7.13579 14.5146 7.13579C16.4365 7.13579 18 5.53525 18 3.56795C18 1.60054 16.4365 0 14.5146 0C12.5928 0 11.0292 1.60054 11.0292 3.56787C11.0292 4.05766 11.1262 4.52466 11.3014 4.94993L6.41926 7.57581C5.79877 6.58789 4.7155 5.93213 3.48537 5.93213C1.56354 5.93213 0 7.53266 0 9.5C0 11.4673 1.56354 13.0679 3.48537 13.0679C4.7155 13.0679 5.79881 12.4121 6.41926 11.4242L11.3014 14.0501C11.1262 14.4753 11.0292 14.9424 11.0292 15.4321C11.0292 17.3995 12.5928 19 14.5146 19C16.4365 19 18 17.3995 18 15.4321C18 13.4648 16.4365 11.8643 14.5146 11.8643ZM14.5146 0.612903C16.1063 0.612903 17.4013 1.93849 17.4013 3.56787C17.4013 5.19721 16.1063 6.5228 14.5146 6.5228C12.9229 6.5228 11.628 5.19721 11.628 3.56787C11.6279 1.93849 12.9229 0.612903 14.5146 0.612903ZM3.48533 12.455C1.89365 12.455 0.598697 11.1294 0.598697 9.5C0.598697 7.87062 1.89365 6.54503 3.48533 6.54503C5.07701 6.54503 6.37196 7.87062 6.37196 9.5C6.37196 11.1294 5.07701 12.455 3.48533 12.455ZM14.5146 18.3871C12.9229 18.3871 11.628 17.0615 11.628 15.4321C11.628 13.8028 12.9229 12.4772 14.5146 12.4772C16.1063 12.4772 17.4013 13.8028 17.4013 15.4321C17.4013 17.0615 16.1063 18.3871 14.5146 18.3871Z"
    /></symbol>
        
        
        <symbol
    xmlns="http://www.w3.org/2000/svg"
    viewBox="0 0 26 18"
    id="icon-twitter"
  ><g clip-path="url(#clip0_27_2065)"><path
        d="M9.93402 18C17.2105 18 21.1897 11.802 21.1897 6.42738C21.1897 6.25136 21.1862 6.07614 21.1785 5.90166C21.9528 5.32563 22.621 4.61243 23.1518 3.79547C22.443 4.11948 21.6802 4.33755 20.88 4.43587C21.6968 3.93234 22.3238 3.13574 22.6197 2.18621C21.8431 2.65985 20.9935 2.99374 20.1076 3.17349C19.3857 2.38289 18.358 1.88843 17.22 1.88843C15.0354 1.88843 13.2638 3.70992 13.2638 5.95519C13.2638 6.2744 13.2986 6.58479 13.3664 6.88261C10.0786 6.71251 7.1631 5.09402 5.21192 2.63302C4.8605 3.25374 4.67565 3.95919 4.67627 4.67734C4.67627 6.08847 5.37464 7.33417 6.4367 8.06298C5.80848 8.04325 5.19405 7.86879 4.64507 7.55426C4.64448 7.57134 4.64448 7.58797 4.64448 7.60622C4.64448 9.57598 6.00807 11.2206 7.8182 11.5933C7.47824 11.6885 7.12743 11.7366 6.77507 11.7364C6.52061 11.7364 6.27261 11.7106 6.03159 11.6631C6.53523 13.2791 7.99562 14.4552 9.72709 14.488C8.3731 15.5791 6.66749 16.229 4.81375 16.229C4.4984 16.2293 4.18331 16.2105 3.87012 16.1727C5.62091 17.3265 7.69981 17.9997 9.93422 17.9997"
      /></g><defs><clipPath id="clip0_27_2065"><rect
          width="26"
          height="18"
          fill="white"
        /></clipPath></defs></symbol>
        
</svg>