<svg width="0" height="0" class="hidden"><symbol
    xmlns="http://www.w3.org/2000/svg"
    viewBox="0 0 18 18"
    id="icon-linkedin"
  ><g clip-path="url(#clip0_27_2071)"><path
        d="M0 1.74694C0 1.07747 0.595828 0.534058 1.33031 0.534058H16.6697C17.4045 0.534058 18 1.07747 18 1.74694V16.2534C18 16.923 17.4045 17.4661 16.6697 17.4661H1.33031C0.595898 17.4661 0 16.9231 0 16.2536V1.74675V1.74694Z"
      /><path
        d="M5.46997 14.7039V7.08101H2.77644V14.7039H5.47025H5.46997ZM4.12377 6.04042C5.06286 6.04042 5.64751 5.45508 5.64751 4.72356C5.62993 3.97538 5.06286 3.40637 4.14163 3.40637C3.21976 3.40637 2.61768 3.97538 2.61768 4.7235C2.61768 5.45501 3.20211 6.04036 4.10612 6.04036H4.12356L4.12377 6.04042ZM6.96088 14.7039H9.6542V10.4474C9.6542 10.2198 9.67178 9.99173 9.74293 9.82922C9.93756 9.37384 10.3807 8.90246 11.125 8.90246C12.0994 8.90246 12.4894 9.60143 12.4894 10.6263V14.7039H15.1827V10.3331C15.1827 7.99184 13.854 6.9023 12.0819 6.9023C10.6291 6.9023 9.99099 7.66616 9.63648 8.18642H9.65441V7.08128H6.96102C6.99618 7.79639 6.96081 14.7041 6.96081 14.7041L6.96088 14.7039Z"
        fill="white"
      /></g><defs><clipPath id="clip0_27_2071"><rect
          width="18"
          height="17"
          fill="white"
          transform="translate(0 0.5)"
        /></clipPath></defs></symbol>
        
        <symbol
    xmlns="http://www.w3.org/2000/svg"
    viewBox="0 0 22 16"
    id="icon-meta"
  ><g clip-path="url(#clip0_27_2067)"><path
        d="M2.27252 10.3919C2.27252 11.2542 2.45905 11.9161 2.70302 12.3166C3.02281 12.8413 3.49975 13.0639 3.98602 13.0639C4.61311 13.0639 5.18686 12.9061 6.29248 11.355C7.17846 10.1119 8.22197 8.36691 8.92423 7.27295L10.1135 5.41958C10.9396 4.13246 11.8958 2.70164 12.9922 1.73178C13.8875 0.940129 14.8528 0.500366 15.8245 0.500366C17.4559 0.500366 19.0098 1.45926 20.1991 3.25766C21.5007 5.22718 22.1324 7.70807 22.1324 10.2681C22.1324 11.7901 21.8367 12.9084 21.3334 13.7919C20.8472 14.6463 19.8995 15.5 18.3052 15.5V13.0636C19.6703 13.0636 20.0109 11.7913 20.0109 10.3353C20.0109 8.2605 19.534 5.95801 18.4833 4.31275C17.7377 3.14576 16.7715 2.43271 15.7084 2.43271C14.5585 2.43271 13.6333 3.31243 12.5934 4.8805C12.0406 5.71377 11.4731 6.72913 10.8358 7.87494L10.1343 9.13539C8.7253 11.67 8.3683 12.247 7.6637 13.1994C6.42883 14.8673 5.37422 15.4996 3.98602 15.4996C2.33911 15.4996 1.29775 14.7763 0.652753 13.6863C0.126291 12.7981 -0.132324 11.6326 -0.132324 10.3047L2.27252 10.3919Z"
      /><path
        d="M1.76367 3.42926C2.86621 1.70549 4.45735 0.5 6.2823 0.5C7.33914 0.5 8.39001 0.817265 9.48696 1.72593C10.687 2.71915 11.9661 4.35561 13.5619 7.05151L14.1341 8.01873C15.5154 10.3527 16.3012 11.5535 16.7612 12.1197C17.3527 12.8469 17.7669 13.0637 18.305 13.0637C19.6701 13.0637 20.0107 11.7914 20.0107 10.3354L22.1322 10.2679C22.1322 11.7899 21.8365 12.9081 21.3332 13.7916C20.847 14.646 19.8993 15.4997 18.305 15.4997C17.3139 15.4997 16.436 15.2814 15.465 14.3523C14.7189 13.6393 13.846 12.3726 13.1747 11.2339L11.1779 7.85073C10.1761 6.15288 9.25669 4.88694 8.7251 4.31361C8.15285 3.69706 7.41729 2.95261 6.2435 2.95261C5.29354 2.95261 4.48673 3.62876 3.81161 4.66304L1.76367 3.42926Z"
      /><path
        d="M6.2437 2.95261C5.29374 2.95261 4.48693 3.62876 3.81181 4.66304C2.85709 6.1245 2.27299 8.30137 2.27299 10.3919C2.27299 11.2542 2.45951 11.9162 2.70349 12.3167L0.652753 13.6863C0.126291 12.7981 -0.132324 11.6327 -0.132324 10.3048C-0.132324 7.88989 0.521161 5.37296 1.76387 3.42926C2.86641 1.70549 4.45755 0.5 6.2825 0.5L6.2437 2.95261Z"
      /></g><defs><clipPath id="clip0_27_2067"><rect
          width="22"
          height="15"
          fill="white"
          transform="translate(0 0.5)"
        /></clipPath></defs></symbol>
        
<symbol
    xmlns="http://www.w3.org/2000/svg"
    viewBox="0 0 18 19"
    id="icon-share"
  ><path
      d="M14.5146 11.8643C13.2845 11.8643 12.2011 12.5201 11.5807 13.508L6.69855 10.8821C6.87378 10.4568 6.97074 9.98979 6.97074 9.50004C6.97074 9.01029 6.87378 8.54326 6.69855 8.11798L11.5807 5.4921C12.2012 6.48002 13.2845 7.13579 14.5146 7.13579C16.4365 7.13579 18 5.53525 18 3.56795C18 1.60054 16.4365 0 14.5146 0C12.5928 0 11.0292 1.60054 11.0292 3.56787C11.0292 4.05766 11.1262 4.52466 11.3014 4.94993L6.41926 7.57581C5.79877 6.58789 4.7155 5.93213 3.48537 5.93213C1.56354 5.93213 0 7.53266 0 9.5C0 11.4673 1.56354 13.0679 3.48537 13.0679C4.7155 13.0679 5.79881 12.4121 6.41926 11.4242L11.3014 14.0501C11.1262 14.4753 11.0292 14.9424 11.0292 15.4321C11.0292 17.3995 12.5928 19 14.5146 19C16.4365 19 18 17.3995 18 15.4321C18 13.4648 16.4365 11.8643 14.5146 11.8643ZM14.5146 0.612903C16.1063 0.612903 17.4013 1.93849 17.4013 3.56787C17.4013 5.19721 16.1063 6.5228 14.5146 6.5228C12.9229 6.5228 11.628 5.19721 11.628 3.56787C11.6279 1.93849 12.9229 0.612903 14.5146 0.612903ZM3.48533 12.455C1.89365 12.455 0.598697 11.1294 0.598697 9.5C0.598697 7.87062 1.89365 6.54503 3.48533 6.54503C5.07701 6.54503 6.37196 7.87062 6.37196 9.5C6.37196 11.1294 5.07701 12.455 3.48533 12.455ZM14.5146 18.3871C12.9229 18.3871 11.628 17.0615 11.628 15.4321C11.628 13.8028 12.9229 12.4772 14.5146 12.4772C16.1063 12.4772 17.4013 13.8028 17.4013 15.4321C17.4013 17.0615 16.1063 18.3871 14.5146 18.3871Z"
    /></symbol>
        
        
        <symbol
    xmlns="http://www.w3.org/2000/svg"
    viewBox="0 0 26 18"
    id="icon-twitter"
  ><g clip-path="url(#clip0_27_2065)"><path
        d="M9.93402 18C17.2105 18 21.1897 11.802 21.1897 6.42738C21.1897 6.25136 21.1862 6.07614 21.1785 5.90166C21.9528 5.32563 22.621 4.61243 23.1518 3.79547C22.443 4.11948 21.6802 4.33755 20.88 4.43587C21.6968 3.93234 22.3238 3.13574 22.6197 2.18621C21.8431 2.65985 20.9935 2.99374 20.1076 3.17349C19.3857 2.38289 18.358 1.88843 17.22 1.88843C15.0354 1.88843 13.2638 3.70992 13.2638 5.95519C13.2638 6.2744 13.2986 6.58479 13.3664 6.88261C10.0786 6.71251 7.1631 5.09402 5.21192 2.63302C4.8605 3.25374 4.67565 3.95919 4.67627 4.67734C4.67627 6.08847 5.37464 7.33417 6.4367 8.06298C5.80848 8.04325 5.19405 7.86879 4.64507 7.55426C4.64448 7.57134 4.64448 7.58797 4.64448 7.60622C4.64448 9.57598 6.00807 11.2206 7.8182 11.5933C7.47824 11.6885 7.12743 11.7366 6.77507 11.7364C6.52061 11.7364 6.27261 11.7106 6.03159 11.6631C6.53523 13.2791 7.99562 14.4552 9.72709 14.488C8.3731 15.5791 6.66749 16.229 4.81375 16.229C4.4984 16.2293 4.18331 16.2105 3.87012 16.1727C5.62091 17.3265 7.69981 17.9997 9.93422 17.9997"
      /></g><defs><clipPath id="clip0_27_2065"><rect
          width="26"
          height="18"
          fill="white"
        /></clipPath></defs></symbol>
        <symbol
    fill="none"
    xmlns="http://www.w3.org/2000/svg"
    viewBox="0 0 9 9"
    id="icon-star"
  ><g clip-path="url(#clip0_27_2076)"><path
        d="M8.99207 3.4761C8.97306 3.41779 8.92264 3.37526 8.8619 3.3664L5.94766 2.94287L4.64439 0.302172C4.61732 0.247077 4.56126 0.21228 4.50005 0.21228C4.43883 0.21228 4.38261 0.247077 4.3557 0.302172L3.05227 2.94303L0.138025 3.36656C0.0772913 3.37542 0.0270291 3.41779 0.00785854 3.47626C-0.0109898 3.53442 0.0046366 3.59854 0.0486161 3.64123L2.15754 5.69682L1.65958 8.59947C1.64927 8.65988 1.67408 8.72093 1.72354 8.75702C1.77332 8.79343 1.83921 8.7981 1.89318 8.76926L4.50005 7.39897L7.10659 8.76926C7.13011 8.78167 7.15605 8.78779 7.18166 8.78779C7.21501 8.78779 7.2482 8.77748 7.27639 8.75702C7.32601 8.72093 7.35082 8.65988 7.34034 8.59947L6.84256 5.69698L8.95148 3.64123C8.99529 3.59821 9.01108 3.53426 8.99207 3.4761Z"
        fill="#FFBF1B"
      /></g><defs><clipPath id="clip0_27_2076"><rect
          width="9"
          height="9"
          fill="white"
        /></clipPath></defs></symbol>

        <symbol
    version="1.1"
    id="icon-menu"
    xmlns="http://www.w3.org/2000/svg"
    xmlns:xlink="http://www.w3.org/1999/xlink"
    x="0px"
    y="0px"
    xml:space="preserve"
    viewBox="0 0 32 32"
  ><path
      d="M24,3H8C5.2,3,3,5.2,3,8v16c0,2.8,2.2,5,5,5h16c2.8,0,5-2.2,5-5V8C29,5.2,26.8,3,24,3z M22,21H10c-0.6,0-1-0.4-1-1
	s0.4-1,1-1h12c0.6,0,1,0.4,1,1S22.6,21,22,21z M22,17H10c-0.6,0-1-0.4-1-1s0.4-1,1-1h12c0.6,0,1,0.4,1,1S22.6,17,22,17z M22,13H10
	c-0.6,0-1-0.4-1-1s0.4-1,1-1h12c0.6,0,1,0.4,1,1S22.6,13,22,13z"
    /></symbol>

    <symbol
    version="1.1"
    id="icon-close"
    xmlns="http://www.w3.org/2000/svg"
    xmlns:xlink="http://www.w3.org/1999/xlink"
    x="0px"
    y="0px"
    xml:space="preserve"
    viewBox="0 0 26 26"
  ><path
      fill="#2c67fe"
      d="M21.125,0H4.875C2.182,0,0,2.182,0,4.875v16.25C0,23.818,2.182,26,4.875,26h16.25
		C23.818,26,26,23.818,26,21.125V4.875C26,2.182,23.818,0,21.125,0z M18.78,17.394l-1.388,1.387c-0.254,0.255-0.67,0.255-0.924,0
		L13,15.313L9.533,18.78c-0.255,0.255-0.67,0.255-0.925-0.002L7.22,17.394c-0.253-0.256-0.253-0.669,0-0.926l3.468-3.467
		L7.221,9.534c-0.254-0.256-0.254-0.672,0-0.925l1.388-1.388c0.255-0.257,0.671-0.257,0.925,0L13,10.689l3.468-3.468
		c0.255-0.257,0.671-0.257,0.924,0l1.388,1.386c0.254,0.255,0.254,0.671,0.001,0.927l-3.468,3.467l3.468,3.467
		C19.033,16.725,19.033,17.138,18.78,17.394z"
    /></symbol>
        
        
        </svg>
