<svg width="1712" height="703" viewBox="0 0 1712 703" fill="none" xmlns="http://www.w3.org/2000/svg">
<path d="M1027.6 198.047V231.164H861.383V198.047H1027.6ZM867.711 66V373.125H827V66H867.711ZM1063.04 66V373.125H1022.54V66H1063.04Z" fill="#011341"/>
<path d="M1289.47 340.008V373.125H1126.83V340.008H1289.47ZM1135.06 66V373.125H1094.35V66H1135.06ZM1267.95 198.047V231.164H1126.83V198.047H1267.95ZM1287.36 66V99.3281H1126.83V66H1287.36Z" fill="#011341"/>
<path d="M1485.1 340.008V373.125H1331.54V340.008H1485.1ZM1339.55 66V373.125H1298.84V66H1339.55Z" fill="#011341"/>
<path d="M1603.95 252.68H1521.9V219.562H1603.95C1619.84 219.562 1632.71 217.031 1642.55 211.969C1652.4 206.906 1659.57 199.875 1664.07 190.875C1668.71 181.875 1671.03 171.609 1671.03 160.078C1671.03 149.531 1668.71 139.617 1664.07 130.336C1659.57 121.055 1652.4 113.602 1642.55 107.977C1632.71 102.211 1619.84 99.3281 1603.95 99.3281H1531.39V373.125H1490.68V66H1603.95C1627.15 66 1646.77 70.0078 1662.8 78.0234C1678.83 86.0391 1691 97.1484 1699.29 111.352C1707.59 125.414 1711.74 141.516 1711.74 159.656C1711.74 179.344 1707.59 196.148 1699.29 210.07C1691 223.992 1678.83 234.609 1662.8 241.922C1646.77 249.094 1627.15 252.68 1603.95 252.68Z" fill="#011341"/>
<path d="M946.455 475.614V634.886H941.477L832.599 484.946H831.977V634.886H827V475.614H831.977L940.855 625.554H941.477V475.614H946.455Z" fill="#011341"/>
<path d="M1087.05 634.886V475.614H1171.98V480.591H1092.03V552.761H1167.31V557.739H1092.03V629.909H1174.16V634.886H1087.05Z" fill="#011341"/>
<path d="M1331.03 634.886L1287.17 475.614H1292.46L1334.14 627.109H1334.76L1375.2 475.614H1382.05L1422.49 627.109H1423.11L1464.79 475.614H1470.08L1426.22 634.886H1419.38L1378.94 483.391H1378.31L1337.87 634.886H1331.03Z" fill="#011341"/>
<path d="M1677.21 515.432C1676.44 504.544 1672.26 495.6 1664.69 488.601C1657.17 481.602 1647.25 478.102 1634.91 478.102C1626.82 478.102 1619.59 479.658 1613.21 482.768C1606.83 485.879 1601.8 490.157 1598.12 495.6C1594.44 500.993 1592.6 507.188 1592.6 514.188C1592.6 518.232 1593.27 521.964 1594.62 525.386C1595.97 528.808 1598.02 531.945 1600.77 534.797C1603.57 537.596 1607.06 540.137 1611.26 542.418C1615.52 544.647 1620.49 546.643 1626.2 548.406L1644.24 554.006C1651.13 556.131 1657.1 558.516 1662.13 561.161C1667.15 563.805 1671.3 566.786 1674.57 570.104C1677.89 573.37 1680.35 577.026 1681.96 581.07C1683.56 585.062 1684.37 589.521 1684.37 594.446C1684.37 602.741 1682.24 610.13 1677.99 616.61C1673.74 623.091 1667.8 628.172 1660.18 631.853C1652.56 635.534 1643.72 637.375 1633.66 637.375C1623.97 637.375 1615.49 635.69 1608.23 632.32C1600.97 628.898 1595.22 624.206 1590.97 618.244C1586.77 612.229 1584.41 605.334 1583.89 597.557H1588.87C1589.39 604.401 1591.54 610.441 1595.32 615.677C1599.11 620.914 1604.24 625.01 1610.72 627.965C1617.25 630.92 1624.9 632.398 1633.66 632.398C1642.79 632.398 1650.77 630.816 1657.62 627.654C1664.51 624.439 1669.85 619.98 1673.64 614.277C1677.47 608.574 1679.39 601.964 1679.39 594.446C1679.39 588.743 1678.15 583.74 1675.66 579.436C1673.17 575.081 1669.25 571.245 1663.91 567.926C1658.57 564.608 1651.6 561.627 1642.99 558.983L1624.95 553.384C1612.46 549.443 1603.1 544.233 1596.88 537.752C1590.71 531.271 1587.62 523.416 1587.62 514.188C1587.62 506.359 1589.67 499.359 1593.77 493.19C1597.86 486.968 1603.46 482.069 1610.56 478.491C1617.72 474.914 1625.83 473.125 1634.91 473.125C1644.03 473.125 1652.04 474.94 1658.94 478.569C1665.83 482.198 1671.3 487.201 1675.35 493.578C1679.39 499.956 1681.67 507.24 1682.19 515.432H1677.21Z" fill="#011341"/>
<path fill-rule="evenodd" clip-rule="evenodd" d="M301 546C436.31 546 546 436.31 546 301C546 165.69 436.31 56 301 56C165.69 56 56 165.69 56 301C56 436.31 165.69 546 301 546ZM301 602C467.238 602 602 467.238 602 301C602 134.762 467.238 0 301 0C134.762 0 0 134.762 0 301C0 467.238 134.762 602 301 602Z" fill="#011341"/>
<path d="M202.95 243.827V291.481H263.073V315.42H202.95V381H173V220H274.166V243.827H202.95Z" fill="#2C67FE"/>
<path d="M429 381H399.271C397.201 381 395.537 380.48 394.28 379.441C393.096 378.402 392.135 377.214 391.396 375.878L354.235 314.084C353.643 315.939 352.941 317.535 352.127 318.871L316.519 375.878C315.632 377.14 314.597 378.328 313.413 379.441C312.304 380.48 310.825 381 308.976 381H281.134L334.379 298.162L283.241 220H312.97C315.04 220 316.519 220.297 317.407 220.891C318.368 221.41 319.256 222.301 320.069 223.563L356.564 282.574C357.304 280.718 358.191 278.863 359.227 277.007L392.727 224.12C393.54 222.709 394.428 221.67 395.389 221.002C396.35 220.334 397.571 220 399.05 220H427.558L375.977 296.937L429 381Z" fill="#2C67FE"/>
<path fill-rule="evenodd" clip-rule="evenodd" d="M447.585 579.489L522.675 661.023C550.493 691.229 597.526 693.162 627.726 665.341C657.925 637.52 659.856 590.48 632.037 560.274L561.723 483.925C532.372 524.071 493.406 557.174 447.585 579.489Z" fill="#011341"/>
</svg>
