<svg width="113" height="47" viewBox="0 0 113 47" fill="none" xmlns="http://www.w3.org/2000/svg">
<path d="M67.8975 13.0564V15.2397H56.9393V13.0564H67.8975ZM57.3565 4.35107V24.5986H54.6726V4.35107H57.3565ZM70.2337 4.35107V24.5986H67.5637V4.35107H70.2337Z" fill="#2C67FE"/>
<path d="M85.1613 22.4153V24.5986H74.4395V22.4153H85.1613ZM74.9819 4.35107V24.5986H72.298V4.35107H74.9819ZM83.7428 13.0564V15.2397H74.4395V13.0564H83.7428ZM85.0222 4.35107V6.54827H74.4395V4.35107H85.0222Z" fill="#2C67FE"/>
<path d="M98.0585 22.4153V24.5986H87.9348V22.4153H98.0585ZM88.4632 4.35107V24.5986H85.7793V4.35107H88.4632Z" fill="#2C67FE"/>
<path d="M105.894 16.6581H100.484V14.4749H105.894C106.941 14.4749 107.79 14.308 108.439 13.9742C109.088 13.6405 109.561 13.1769 109.857 12.5836C110.163 11.9903 110.316 11.3135 110.316 10.5533C110.316 9.85796 110.163 9.20437 109.857 8.59249C109.561 7.98061 109.088 7.48926 108.439 7.11843C107.79 6.73832 106.941 6.54827 105.894 6.54827H101.11V24.5986H98.4262V4.35107H105.894C107.424 4.35107 108.717 4.61529 109.774 5.14373C110.831 5.67217 111.633 6.40457 112.18 7.34093C112.727 8.26801 113 9.32952 113 10.5255C113 11.8234 112.727 12.9313 112.18 13.8491C111.633 14.7669 110.831 15.4668 109.774 15.9489C108.717 16.4217 107.424 16.6581 105.894 16.6581Z" fill="#2C67FE"/>
<path d="M62.5477 31.3555V41.8557H62.2196L55.0417 31.9707H55.0007V41.8557H54.6726V31.3555H55.0007L62.1786 41.2405H62.2196V31.3555H62.5477Z" fill="white"/>
<path d="M71.8169 41.8557V31.3555H77.4157V31.6836H72.1451V36.4415H77.1081V36.7697H72.1451V41.5276H77.5592V41.8557H71.8169Z" fill="white"/>
<path d="M87.9012 41.8557L85.0096 31.3555H85.3582L88.1063 41.343H88.1473L90.8134 31.3555H91.2646L93.9307 41.343H93.9717L96.7198 31.3555H97.0684L94.1768 41.8557H93.7256L91.0595 31.8682H91.0185L88.3524 41.8557H87.9012Z" fill="white"/>
<path d="M110.724 33.9805C110.673 33.2627 110.397 32.6731 109.898 32.2117C109.403 31.7503 108.748 31.5195 107.935 31.5195C107.401 31.5195 106.925 31.6221 106.504 31.8272C106.084 32.0322 105.752 32.3142 105.51 32.6731C105.267 33.0286 105.146 33.4371 105.146 33.8985C105.146 34.1651 105.19 34.4112 105.279 34.6368C105.368 34.8624 105.503 35.0692 105.684 35.2572C105.868 35.4417 106.099 35.6092 106.376 35.7596C106.656 35.9066 106.984 36.0382 107.36 36.1544L108.55 36.5236C109.005 36.6637 109.398 36.8209 109.729 36.9952C110.061 37.1696 110.334 37.3661 110.549 37.5849C110.768 37.8002 110.931 38.0412 111.037 38.3078C111.143 38.571 111.195 38.8649 111.195 39.1896C111.195 39.7365 111.055 40.2236 110.775 40.6508C110.495 41.0781 110.103 41.4131 109.601 41.6557C109.099 41.8984 108.516 42.0198 107.853 42.0198C107.213 42.0198 106.655 41.9087 106.176 41.6865C105.698 41.4609 105.318 41.1516 105.038 40.7585C104.761 40.362 104.606 39.9074 104.571 39.3947H104.899C104.934 39.8459 105.075 40.2441 105.325 40.5893C105.575 40.9345 105.913 41.2046 106.34 41.3994C106.771 41.5942 107.275 41.6916 107.853 41.6916C108.454 41.6916 108.981 41.5874 109.432 41.3789C109.886 41.167 110.238 40.873 110.488 40.497C110.741 40.121 110.867 39.6852 110.867 39.1896C110.867 38.8136 110.785 38.4838 110.621 38.2001C110.457 37.913 110.199 37.6601 109.847 37.4413C109.495 37.2225 109.035 37.026 108.468 36.8517L107.278 36.4825C106.455 36.2228 105.838 35.8793 105.428 35.452C105.021 35.0247 104.817 34.5069 104.817 33.8985C104.817 33.3824 104.952 32.9209 105.222 32.5142C105.492 32.104 105.862 31.781 106.33 31.5452C106.802 31.3093 107.337 31.1914 107.935 31.1914C108.536 31.1914 109.064 31.311 109.519 31.5503C109.974 31.7896 110.334 32.1194 110.601 32.5398C110.867 32.9602 111.018 33.4405 111.052 33.9805H110.724Z" fill="white"/>
<path fill-rule="evenodd" clip-rule="evenodd" d="M19.8438 35.9956C28.7642 35.9956 35.9956 28.7642 35.9956 19.8438C35.9956 10.9233 28.7642 3.69186 19.8438 3.69186C10.9233 3.69186 3.69186 10.9233 3.69186 19.8438C3.69186 28.7642 10.9233 35.9956 19.8438 35.9956ZM19.8438 39.6875C30.8032 39.6875 39.6875 30.8032 39.6875 19.8438C39.6875 8.88435 30.8032 0 19.8438 0C8.88435 0 0 8.88435 0 19.8438C0 30.8032 8.88435 39.6875 19.8438 39.6875Z" fill="#2C67FE"/>
<path d="M13.3797 16.0747V19.2164H17.3434V20.7946H13.3797V25.118H11.4052V14.5039H18.0747V16.0747H13.3797Z" fill="white"/>
<path d="M28.2823 25.118H26.3224C26.1859 25.118 26.0762 25.0838 25.9933 25.0152C25.9153 24.9467 25.8519 24.8684 25.8032 24.7804L23.3533 20.7065C23.3143 20.8288 23.268 20.934 23.2144 21.0221L20.8669 24.7804C20.8084 24.8635 20.7401 24.9418 20.6621 25.0152C20.589 25.0838 20.4915 25.118 20.3696 25.118H18.5341L22.0443 19.6568L18.673 14.5039H20.6329C20.7694 14.5039 20.8669 14.5235 20.9254 14.5626C20.9888 14.5969 21.0473 14.6556 21.1009 14.7388L23.5069 18.6292C23.5557 18.5068 23.6142 18.3845 23.6824 18.2622L25.8909 14.7755C25.9446 14.6825 26.0031 14.614 26.0665 14.57C26.1298 14.5259 26.2103 14.5039 26.3078 14.5039H28.1872L24.7867 19.5761L28.2823 25.118Z" fill="white"/>
<path fill-rule="evenodd" clip-rule="evenodd" d="M29.5075 38.2037L34.4579 43.5789C36.2919 45.5702 39.3925 45.6977 41.3835 43.8635C43.3744 42.0294 43.5017 38.9282 41.6678 36.9369L37.0322 31.9035C35.0972 34.5502 32.5284 36.7325 29.5075 38.2037Z" fill="#2C67FE"/>
</svg>
