<svg width="30" height="29" viewBox="0 0 30 29" fill="none" xmlns="http://www.w3.org/2000/svg">
<g clip-path="url(#clip0_299_149)">
<path d="M26.248 5.81951V26.774C26.248 27.5355 25.5849 28.1547 24.7693 28.1547H5.2316C4.41604 28.1547 3.75293 27.5355 3.75293 26.774V1.52419C3.75293 0.762697 4.41604 0.143555 5.2316 0.143555H20.1691C20.363 0.143555 20.5379 0.216372 20.665 0.335091H20.6657L26.0429 5.3558C26.175 5.47977 26.2453 5.64439 26.2467 5.81295C26.2473 5.81492 26.248 5.81689 26.248 5.81951ZM24.8431 26.774V6.47536H20.9452C20.1297 6.47536 19.4665 5.85622 19.4665 5.09473V1.45531H5.2316C5.19088 1.45531 5.15783 1.48612 5.15783 1.52419V26.774C5.15783 26.812 5.19082 26.8429 5.2316 26.8429H24.7694C24.8101 26.8428 24.8431 26.812 24.8431 26.774ZM20.9453 5.16361H23.8499L20.8715 2.38269V5.09473C20.8715 5.1328 20.9045 5.16361 20.9453 5.16361Z" fill="#2C67FE"/>
<path d="M21.2163 9.1167C21.6048 9.1167 21.9187 9.41054 21.9187 9.77255C21.9187 10.1346 21.6047 10.4284 21.2163 10.4284H8.78445C8.39598 10.4284 8.08203 10.1346 8.08203 9.77255C8.08203 9.41054 8.39603 9.1167 8.78445 9.1167H21.2163Z" fill="#2C67FE"/>
<path d="M21.2163 13.0742C21.6048 13.0742 21.9187 13.3681 21.9187 13.7301C21.9187 14.0921 21.6047 14.3859 21.2163 14.3859H8.78445C8.39598 14.3859 8.08203 14.0921 8.08203 13.7301C8.08203 13.3681 8.39603 13.0742 8.78445 13.0742H21.2163Z" fill="#2C67FE"/>
<path d="M21.2163 17.0317C21.6048 17.0317 21.9187 17.3256 21.9187 17.6876C21.9187 18.0503 21.6047 18.3434 21.2163 18.3434H8.78445C8.39598 18.3434 8.08203 18.0503 8.08203 17.6876C8.08203 17.3255 8.39603 17.0317 8.78445 17.0317H21.2163Z" fill="#2C67FE"/>
<path d="M15.0004 20.9902C15.3881 20.9902 15.7028 21.2834 15.7028 21.6461C15.7028 22.0082 15.3881 22.3019 15.0004 22.3019H8.78445C8.39598 22.3019 8.08203 22.0081 8.08203 21.6461C8.08203 21.2834 8.39603 20.9902 8.78445 20.9902H15.0004Z" fill="#2C67FE"/>
</g>
<defs>
<clipPath id="clip0_299_149">
<rect width="30" height="28.011" fill="white" transform="translate(0 0.143555)"/>
</clipPath>
</defs>
</svg>
